<svg xmlns="http://www.w3.org/2000/svg" viewBox="0 0 1286.9 291.84" style="height: 75px;">
                            <g style="fill: #e50914;">
                                <path d="M517.5,1.44c-17.3,3.2-32.5,13.7-39.2,27.5-6.9,14.1-6.8,12.1-6.8,95.4,0,83.7,0,83.2,7,97.3,6.4,12.8,15.7,20.7,30.2,25.7,10.7,3.6,32.6,4.6,45.3,2.1,20.4-4.2,34.2-14.1,42-30.1,5.8-11.8,7-19.6,7-45v-21.5H561v20.8c0,23.2-1,28.9-5.7,33.4-4.3,4.1-9.4,5.8-17.6,5.8-10,0-15.2-2.6-18.7-9.5l-2.5-4.9-.3-71.5c-.2-49.7.1-73.1.9-76.8,2.1-10.3,9.7-15.6,22.2-15.5,9.1,0,15.2,3,18.7,9.3,2.4,4.2,2.5,5.4,2.8,22.1l.4,17.8H603V66.54c0-19.3-1.5-27.6-6.7-38.4-6.4-13.2-21.9-23.7-39.7-26.8C545.7-.46,528.2-.46,517.5,1.44Z"></path>
                                <path d="M672.5,1.54c-9.6,1.7-22.1,7.5-28.7,13.2-6.2,5.5-11.2,13.2-14.5,22.7l-2.8,7.9v155l2.3,7.5c3.5,10.8,6.4,16.1,13.3,23.5a42.44,42.44,0,0,0,14.3,10.5c11.1,5.4,18,7.1,32.4,7.7,37.1,1.7,60.1-12.1,68.8-41.3,1.6-5.4,1.8-12.5,2.1-81,.4-83.5.4-83.4-6.1-96.9-7.7-16-21.3-25.4-42.1-29.1C701.5-.46,683-.36,672.5,1.54Zm31.5,35c4.7,1.9,7,4.1,9.1,8.8,1.7,3.8,1.9,8.3,1.9,78.1v74l-2.5,5c-3.1,6.2-8.2,9.4-16.4,10.1-11.9,1.1-21.5-4.2-24-13.4-.7-2.5-1.1-28.9-1.1-76.6,0-77.6-.1-76.7,4.8-82C681.3,34.44,694.4,32.54,704,36.54Z"></path>
                                <path d="M263.3,2.64l-20.2.2-.3,104.3c-.3,83-.6,105-1.7,108.2-1.7,5.1-8.5,11.7-13.8,13.3-6.9,2-16.5,1.6-20.3-1a18,18,0,0,1-8-11.4c-.6-2.2-1-49.4-1-108.7V2.84H153v105.7c0,112.7.1,115.2,4.9,128.7,7.7,21.9,25,33.6,50.1,33.8,16.3.1,28.6-2.5,41.8-8.8,13.5-6.5,25.5-20.5,30.7-35.9,4.3-12.8,4.5-16.9,4.5-122.7,0-55.4-.3-100.8-.7-101S274.4,2.44,263.3,2.64Z"></path>
                                <path d="M788,125.24v123.4l5.8.6c3.1.3,13.1.7,22.2.8l16.5.3.3-52.4.2-52.4,28,.7,28,.7v-35.8l-28-.8-28-.7V36.74l36,.7,36,.7V1.84H788Z"></path>
                                <path d="M314.7,2.54c-.4.3-.7,58.2-.7,128.5v127.9l6.8-.6c8.9-.7,34.2-2.5,36.5-2.5,1.6,0,1.7-3.2,1.7-53.1v-53.1l13.3.4c11.9.3,13.8.6,18.2,2.9,4.1,2.1,5.5,3.6,8,8.4l3,5.9.6,37c.4,20.4,1,38.2,1.4,39.6s1.2,4,1.7,5.9l1,3.3,14.2-.6c7.7-.4,18-.9,22.7-1.2l8.5-.6-2-5.7c-1.8-5-2-9.3-2.7-43.1-.4-24-1.1-39.3-1.9-42.5-3.3-13.1-11.2-23.7-21.6-29l-5.6-2.8,3.8-2a44.13,44.13,0,0,0,21.4-25.1c4.2-12.3,5-44.9,1.5-60.4q-7.5-32.25-48-37.1C386.8,1.74,315.8,1.44,314.7,2.54Zm72.7,36.3c5.3,1.2,8.6,3.8,11.6,9.1,2.5,4.3,2.5,4.8,2.5,26.4,0,21-.1,22.2-2.3,26.7-4.3,8.6-11,11.5-28.9,12.5l-11.3.6V37.84h12.3C378,37.84,385.3,38.34,387.4,38.84Z"></path>
                                <path d="M925.7,2.54c-.4.3-.7,57.3-.7,126.5,0,99.8.3,125.9,1.3,126.3.6.2,12.5,1.1,26.2,2s38.6,2.7,55.3,4.1,31.4,2.4,32.7,2.4h2.5V225l-6.2-.6c-3.5-.3-17.1-1.3-30.3-2.1s-26.8-1.8-30.2-2.1l-6.3-.6V1.84H948.2C936.2,1.84,926,2.14,925.7,2.54Z"></path>
                                <path d="M0,22.94V43l23-.3,23-.4V164c0,115.4.1,121.8,1.8,121.7.9,0,10.9-1.2,22.2-2.7l20.5-2.7V41.74c0-.1,10.4-.5,23-.8l23-.6.3-18.8.2-18.7H0Z"></path>
                                <path d="M1061,134.34c0,72.3.1,131.5.3,131.5s9.2.9,20.2,2,21,2,22.3,2h2.2V2.84h-45Z"></path>
                                <path d="M1136.7,20.54c6.4,17.7,28.6,80.9,35.8,101.8l3.8,11-10.8,30c-17.9,50.1-38.5,108.8-38.3,109s7.7,1,16.8,1.9,18.4,2,20.7,2.3l4.1.5,17.8-54.1c9.8-29.7,18-54.1,18.3-54.1.6,0,19.2,60.1,29.2,94.5,3.4,11.6,6.5,21.4,6.9,21.8.7.8,39.8,6.6,44.6,6.7,2.1,0,2-.5-2.8-16.3-10.5-34.4-20.4-65.6-32-101.2-10.8-33.3-12-37.4-11.1-40.5.6-1.9,10.8-31.8,22.7-66.3S1284,4.34,1284,3.84s-8.1-1-20.4-1h-20.4l-16.9,49.9-16.8,50-16.5-50-16.4-49.9h-46.3Z"></path>
                            </g>
                        </svg>